<svg xmlns="http://www.w3.org/2000/svg" width="1028.463" height="326.035" viewBox="0 0 1028.463 326.035"><path fill="#fff" stroke="#000" stroke-miterlimit="10" d="M0 0h1028.463v326.035H0z"/><path d="M0 0v326.034h1028.463V0H0zm1007.18 304.753H21.282V21.285h985.897v283.468zM86.768 239.265V86.77h32.743v124.332h50.147v28.164h-82.89zm102.534 0V86.77h32.743v152.496h-32.743zm153.63-100.633V127.91c0-23.81-16.488-44.19-49-44.19-32.515 0-50.604 21.523-50.604 44.19v70.214c0 22.668 18.09 44.19 50.603 44.19 32.514 0 49-20.38 49-44.19V160.84h-49.456v22.44h17.858v15.762c0 8.47-5.037 15.797-17.174 15.797-11.906 0-17.63-7.786-17.63-16.26v-71.13c0-8.47 5.725-16.256 17.63-16.256 12.137 0 17.174 7.327 17.174 15.798v11.64h31.6zm92.033 100.633v-61.137h-38.007v61.137h-32.745V86.77h32.745v63.193h38.007V86.77h32.745v152.496h-32.745zm118.102-124.56v124.56h-32.74v-124.56h-32.973V86.77h98.456v27.934h-32.743zm108.947 124.56h-56.556V86.77h55.87c24.728 0 38.237 13.28 38.237 35.034v10.99c0 14.423-5.726 25.646-21.297 28.393 16.258 3.432 22.212 14.196 22.212 28.39v14.655c.002 21.98-13.738 35.033-38.466 35.033zm6.41-114.488c0-7.554-3.205-12.36-11.676-12.36H638.43v38.922h16.943c8.475 0 13.052-4.35 13.052-13.28v-13.283zm.69 62.74c0-8.932-4.58-13.512-13.054-13.512h-17.63v39.613h19.003c8.472 0 11.68-4.58 11.68-12.135v-13.97h.002v.004zm101.88 54.797c-31.368 0-50.145-19.46-50.145-46.71V130.2c0-27.016 18.775-46.478 50.145-46.478 31.597 0 50.146 19.462 50.146 46.478v65.405c0 27.248-18.55 46.71-50.145 46.71zM788.17 128.37c0-10.306-6.183-17.175-17.174-17.175-10.764 0-16.946 6.87-16.946 17.174v69.07c0 10.3 6.184 17.17 16.946 17.17 10.99 0 17.174-6.87 17.174-17.17v-69.07zM906.52 239.264l-20.83-52.436-22.673 52.435h-32.055l36.635-77.394-34.347-75.1h34.347l19.462 51.06 21.293-51.06h32.286l-35.49 73.27 35.943 79.225H906.52z"/></svg>